<svg width="49" height="49" viewBox="0 0 49 49" fill="none" xmlns="http://www.w3.org/2000/svg">
<mask id="mask0_4_21" style="mask-type:alpha" maskUnits="userSpaceOnUse" x="0" y="0" width="49" height="49">
<circle cx="24.5" cy="24.5" r="24.5" fill="#C4C4C4"/>
</mask>
<g mask="url(#mask0_4_21)">
<path d="M0 2.04167C0 0.914086 0.914085 0 2.04167 0H46.9583C48.0859 0 49 0.914085 49 2.04167V46.9583C49 48.0859 48.0859 49 46.9583 49H2.04167C0.914086 49 0 48.0859 0 46.9583V2.04167Z" fill="white"/>
<path d="M20.285 49C19.7212 49 19.2642 48.543 19.2642 47.9792V28.041C19.2642 27.4772 18.8072 27.0202 18.2434 27.0202H16.2157C15.6519 27.0202 15.1948 26.5631 15.1948 25.9993V21.9758C15.1948 21.412 15.6519 20.955 16.2157 20.955H18.2434C18.8072 20.955 19.2642 20.498 19.2642 19.9342V18.7259C19.2642 15.5292 20.2059 13.0495 22.0894 11.287C23.9729 9.52445 26.6167 8.64319 30.0208 8.64319C31.0445 8.64319 32.15 8.76601 33.3374 9.01167C33.7967 9.10668 34.1175 9.51675 34.1193 9.98573L34.1365 14.2505C34.1393 14.9322 33.4763 15.4492 32.7959 15.4061C32.546 15.3902 32.2776 15.3823 31.9907 15.3823C29.3469 15.3823 28.025 16.5227 28.025 18.8037V19.9342C28.025 20.498 28.4821 20.955 29.0459 20.955H32.4732C33.037 20.955 33.4941 21.412 33.4941 21.9758V25.9993C33.4941 26.5631 33.037 27.0202 32.4732 27.0202H29.0459C28.4821 27.0202 28.025 27.4772 28.025 28.041V47.9792C28.025 48.543 27.568 49 27.0042 49H20.285Z" fill="#191919"/>
</g>
</svg>
