<svg width="49" height="49" viewBox="0 0 49 49" fill="none" xmlns="http://www.w3.org/2000/svg">
<path d="M49 24.5C49 38.0363 38.0363 49 24.5 49C10.9637 49 0 38.0363 0 24.5C0 10.9637 10.9637 0 24.5 0C38.0363 0 49 10.9637 49 24.5ZM20.0165 37.4238C30.8822 37.4238 36.8235 28.42 36.8235 20.6168C36.8235 20.417 36.8235 20.2173 36.8178 20.0233C36.8147 19.9197 36.8621 19.8208 36.9452 19.7589C37.7598 19.1521 38.4982 18.4402 39.1378 17.6455C39.3302 17.4065 39.07 17.0795 38.7795 17.1779C38.4555 17.2877 38.1247 17.3841 37.7878 17.4667C37.4666 17.5453 37.2712 17.076 37.5059 16.843C37.9831 16.3694 38.3787 15.8156 38.6718 15.2016C38.793 14.9476 38.5137 14.7138 38.2624 14.8404C37.3641 15.2929 36.3999 15.636 35.3857 15.8536C35.2821 15.8759 35.1751 15.8408 35.1005 15.7655C34.0302 14.6865 32.5481 14.0262 30.9067 14.0262C27.6483 14.0262 25.0023 16.6722 25.0023 19.9307C25.0023 20.2514 25.0255 20.5663 25.076 20.8713C25.1097 21.075 24.9521 21.2678 24.7462 21.2524C20.1611 20.9109 16.0951 18.7311 13.27 15.4447C13.1303 15.2821 12.8706 15.3035 12.7775 15.4967C12.4027 16.274 12.1888 17.1491 12.1888 18.0688C12.1888 19.7325 12.8774 21.2423 13.9912 22.3148C14.2128 22.5281 14.0655 22.9194 13.7648 22.8545C13.2166 22.7362 12.697 22.5398 12.2165 22.2812C12.1874 22.2656 12.152 22.2865 12.152 22.3195C12.152 24.7366 13.5979 26.8053 15.6744 27.725C15.969 27.8555 15.9518 28.2989 15.6299 28.3148C15.5328 28.3196 15.4351 28.322 15.337 28.322C15.1336 28.322 14.9336 28.3115 14.7353 28.2904C14.5034 28.2657 14.3112 28.4839 14.4013 28.6991C15.1723 30.541 16.8509 31.9027 18.8765 32.2372C19.161 32.2841 19.2762 32.6609 19.0368 32.8216C17.1405 34.095 14.8557 34.839 12.397 34.839C12.3739 34.839 12.3508 34.8389 12.3277 34.8388C12.002 34.8372 11.855 35.2859 12.1414 35.4411C14.4773 36.7066 17.1662 37.4238 20.0165 37.4238Z" fill="white"/>
</svg>
