<svg width="54" height="55" viewBox="0 0 54 55" fill="none" xmlns="http://www.w3.org/2000/svg">
<path d="M49.3332 16.0975C48.0881 13.3463 46.3009 10.8762 44.0316 8.74754C41.7624 6.63893 39.1316 4.97213 36.1996 3.80738C33.1673 2.60246 29.9541 2 26.6406 2C23.3271 2 20.114 2.60246 17.0816 3.80738C14.1496 4.97213 11.5189 6.61885 9.24961 8.74754C6.98035 10.8762 5.19307 13.3463 3.94799 16.0975C2.66274 18.9492 2 22.0016 2 25.1344C2 30.6168 4.04834 35.8783 7.80367 40.0553L5.79547 51L16.4791 46.2406C19.6721 47.6061 23.066 48.2889 26.6205 48.2889C29.934 48.2889 33.1472 47.6865 36.1795 46.4816C39.1115 45.3168 41.7422 43.6701 44.0115 41.5414C46.2808 39.4127 48.068 36.9426 49.3131 34.1914C50.5984 31.3398 51.2611 28.2873 51.2611 25.1545C51.2812 22.0016 50.6185 18.9693 49.3332 16.0975Z" stroke="white" stroke-width="4"/>
<path d="M36.6415 29.7532C35.5972 29.231 34.8342 28.9097 34.292 28.7089C33.9506 28.5884 33.1473 28.2269 32.8661 28.4478C31.9825 29.1708 31.0386 31.2192 30.0345 31.6007C27.5444 31.1187 25.235 29.4118 23.4276 27.6646C22.6243 26.9015 21.1382 24.7327 20.8169 24.1503C20.7567 23.5478 21.8411 22.7446 22.0821 22.2827C23.3271 20.8769 22.3833 19.9933 22.2227 19.411C21.9415 18.8085 21.4596 17.7241 21.0379 16.8405C20.6764 16.2581 20.596 15.3946 19.9534 15.0733C17.2222 13.6675 15.6559 16.479 15.0133 17.945C11.1374 27.2831 34.4325 45.0556 39.1718 32.8056C39.4128 31.7413 39.3124 31.3397 38.9509 30.8577C38.228 30.3556 37.3845 30.1347 36.6415 29.7532Z" stroke="white" stroke-width="4"/>
</svg>
